<svg xmlns="http://www.w3.org/2000/svg" version="1.1" xmlns:xlink="http://www.w3.org/1999/xlink" viewBox="0 0 200 200"><rect width="200" height="200" fill="url('#gradient')"></rect><defs><linearGradient id="gradient" gradientTransform="rotate(13 0.5 0.5)"><stop offset="0%" stop-color="#211c36"></stop><stop offset="100%" stop-color="#211c36"></stop></linearGradient></defs><g><g fill="#fcfb9b" transform="matrix(2.122524182404422,0,0,2.122524182404422,7.721699981357794,111.608956506976)" stroke="#a8dc9f" stroke-width="0"><path d="M10.03-8.30L10.03-5.66L4.50-5.66L4.50 0L1.07 0L1.07-14.22L10.59-14.22L10.59-11.57L4.50-11.57L4.50-8.30L10.03-8.30ZM16.77 0.20L16.77 0.20Q14.34 0.20 12.83-1.25Q11.33-2.71 11.33-5.03L11.33-5.03L11.33-5.30Q11.33-6.92 11.93-8.16Q12.53-9.40 13.68-10.08Q14.83-10.76 16.42-10.76L16.42-10.76Q18.64-10.76 19.93-9.38Q21.22-8.00 21.22-5.53L21.22-5.53L21.22-4.25L14.68-4.25Q14.85-3.36 15.45-2.85Q16.04-2.34 16.99-2.34L16.99-2.34Q18.55-2.34 19.43-3.44L19.43-3.44L20.94-1.66Q20.32-0.81 19.19-0.31Q18.07 0.20 16.77 0.20ZM16.40-8.22L16.40-8.22Q14.95-8.22 14.68-6.31L14.68-6.31L18.00-6.31L18.00-6.56Q18.02-7.35 17.60-7.79Q17.18-8.22 16.40-8.22ZM27.66 0.20L27.66 0.20Q25.22 0.20 23.72-1.25Q22.22-2.71 22.22-5.03L22.22-5.03L22.22-5.30Q22.22-6.92 22.82-8.16Q23.42-9.40 24.57-10.08Q25.72-10.76 27.30-10.76L27.30-10.76Q29.53-10.76 30.82-9.38Q32.11-8.00 32.11-5.53L32.11-5.53L32.11-4.25L25.57-4.25Q25.74-3.36 26.34-2.85Q26.93-2.34 27.88-2.34L27.88-2.34Q29.44-2.34 30.32-3.44L30.32-3.44L31.83-1.66Q31.21-0.81 30.08-0.31Q28.96 0.20 27.66 0.20ZM27.29-8.22L27.29-8.22Q25.84-8.22 25.57-6.31L25.57-6.31L28.89-6.31L28.89-6.56Q28.91-7.35 28.49-7.79Q28.07-8.22 27.29-8.22ZM33.02-5.36L33.02-5.36Q33.02-7.87 34.10-9.32Q35.19-10.76 37.13-10.76L37.13-10.76Q38.54-10.76 39.51-9.65L39.51-9.65L39.51-15L42.81-15L42.81 0L39.85 0L39.69-1.13Q38.67 0.20 37.11 0.20L37.11 0.20Q35.22 0.20 34.12-1.25Q33.02-2.70 33.02-5.36ZM36.32-5.76L36.31-5.16Q36.31-2.34 37.95-2.34L37.95-2.34Q39.04-2.34 39.51-3.26L39.51-3.26L39.51-7.29Q39.06-8.22 37.97-8.22L37.97-8.22Q36.45-8.22 36.32-5.76L36.32-5.76ZM49.51 0L44.83 0L44.83-14.22L49.41-14.22Q51.30-14.22 52.80-13.36Q54.31-12.51 55.15-10.95Q56.00-9.39 56.01-7.46L56.01-7.46L56.01-6.81Q56.01-4.85 55.18-3.31Q54.36-1.76 52.86-0.88Q51.36-0.01 49.51 0L49.51 0ZM49.41-11.57L48.26-11.57L48.26-2.64L49.45-2.64Q50.93-2.64 51.72-3.69Q52.51-4.74 52.51-6.81L52.51-6.81L52.51-7.42Q52.51-9.48 51.72-10.53Q50.93-11.57 49.41-11.57L49.41-11.57ZM64.06-10.64L64.00-7.59L62.92-7.67Q61.37-7.67 60.93-6.69L60.93-6.69L60.93 0L57.64 0L57.64-10.57L60.72-10.57L60.83-9.21Q61.66-10.76 63.14-10.76L63.14-10.76Q63.67-10.76 64.06-10.64L64.06-10.64ZM64.43-4.82L64.42-5.38Q64.42-6.96 65.04-8.20Q65.65-9.43 66.81-10.10Q67.96-10.76 69.51-10.76L69.51-10.76Q71.88-10.76 73.25-9.29Q74.62-7.82 74.62-5.29L74.62-5.29L74.62-5.18Q74.62-2.71 73.25-1.25Q71.88 0.20 69.53 0.20L69.53 0.20Q67.28 0.20 65.91-1.16Q64.54-2.51 64.43-4.82L64.43-4.82ZM67.72-5.77L67.71-5.18Q67.71-3.71 68.17-3.03Q68.63-2.34 69.53-2.34L69.53-2.34Q71.29-2.34 71.33-5.05L71.33-5.05L71.33-5.38Q71.33-8.22 69.51-8.22L69.51-8.22Q67.86-8.22 67.72-5.77L67.72-5.77ZM85.88-5.36L85.88-5.21Q85.88-2.74 84.77-1.27Q83.66 0.20 81.78 0.20L81.78 0.20Q80.32 0.20 79.38-0.87L79.38-0.87L79.38 4.06L76.09 4.06L76.09-10.57L79.17-10.57L79.27-9.59Q80.21-10.76 81.76-10.76L81.76-10.76Q83.71-10.76 84.79-9.32Q85.88-7.88 85.88-5.36L85.88-5.36ZM82.59-5.06L82.59-5.41Q82.59-8.22 80.95-8.22L80.95-8.22Q79.78-8.22 79.38-7.38L79.38-7.38L79.38-3.22Q79.81-2.34 80.97-2.34L80.97-2.34Q82.54-2.34 82.59-5.06L82.59-5.06Z"></path></g></g></svg>